<svg xmlns="http://www.w3.org/2000/svg" width="512" height="512" viewBox="0 0 100 100">
<defs>
<radialGradient id="bg" cx="50%" cy="20%" r="80%"><stop offset="0" stop-color="white" stop-opacity=".45"/><stop offset=".34" stop-color="#2dd4bf" stop-opacity=".48"/><stop offset="1" stop-color="#2563eb" stop-opacity=".18"/></radialGradient>
<linearGradient id="suit" x1="0" x2="1" y1="0" y2="1"><stop offset="0" stop-color="#1e293b"/><stop offset="1" stop-color="#020617"/></linearGradient>
<filter id="glow"><feGaussianBlur stdDeviation="2" result="b"/><feMerge><feMergeNode in="b"/><feMergeNode in="SourceGraphic"/></feMerge></filter>
</defs>
<rect width="100" height="100" rx="28" fill="#020617"/>
<circle cx="50" cy="50" r="44" fill="url(#bg)"/>
<ellipse cx="50" cy="84" rx="30" ry="8" fill="#020617" opacity=".45"/>
<path d="M32 61 C39 52 61 52 68 61 L74 82 H26 Z" fill="url(#suit)" stroke="#2dd4bf" stroke-opacity=".45" stroke-width="1.2"/>
<path d="M43 61 L50 74 L57 61" fill="none" stroke="#2dd4bf" stroke-opacity=".85" stroke-width="2" stroke-linecap="round"/>
<circle cx="50" cy="39" r="15" fill="#dbeafe" opacity=".92"/>
<path d="M35 38 C36 25 45 20 56 24 C64 27 68 34 65 45 C60 39 50 38 35 38 Z" fill="#0f172a" stroke="#2dd4bf" stroke-opacity=".35"/>
<circle cx="44" cy="40" r="1.7" fill="#020617"/><circle cx="56" cy="40" r="1.7" fill="#020617"/>
<path d="M44 48 C48 51 53 51 57 48" fill="none" stroke="#020617" stroke-width="1.6" stroke-linecap="round" opacity=".65"/>
<path d="M24 36 H76 V64 H24 Z M24 47 H76 M38 56 H62" fill="none" stroke="#2dd4bf" stroke-width="3" stroke-linecap="round" stroke-linejoin="round" filter="url(#glow)"/>
<circle cx="77" cy="25" r="7" fill="#020617" stroke="#2dd4bf" stroke-opacity=".75"/>
<text x="77" y="28" text-anchor="middle" font-family="Inter,Arial" font-size="7" font-weight="900" fill="#2dd4bf">D</text>
<text x="50" y="94" text-anchor="middle" font-family="Inter,Arial" font-size="7" font-weight="900" fill="#e0f2fe" opacity=".9">Designer</text>
</svg>